<svg width="30" height="30" viewBox="0 0 30 30" fill="none" xmlns="http://www.w3.org/2000/svg">
<g clip-path="url(#clip0_84_118)">
<path fill-rule="evenodd" clip-rule="evenodd" d="M21.59 18.97C21.59 17.01 21.46 15.52 19.71 14.84C21.17 13.77 21.2 12.67 21.2 11.78V10.89C21.04 7.94 20.05 6.81 16.63 6.81C13.21 6.81 12.21 7.93 12.06 10.89V11.78C12.06 12.67 12.09 13.77 13.55 14.84C11.8 15.52 11.67 17.01 11.67 18.97C11.67 21.87 12.69 23.31 16.63 23.39C20.58 23.31 21.6 21.87 21.6 18.97H21.59ZM9.72997 8.02C9.72997 7.26 9.25997 7.11 8.33997 7.11H5.95997C5.04997 7.11 4.56997 7.27 4.56997 8.02V8.88C4.56997 9.64 5.03997 9.79 5.95997 9.79H6.50997C6.84998 9.79 7.00997 9.97 7.00997 10.5V21.79C7.00997 22.7 7.16997 23.17 7.92997 23.17H8.81997C9.57997 23.17 9.73997 22.7 9.73997 21.79V8.02H9.72997ZM27.7 13.67V12.44C27.7 11.53 27.57 11.06 26.79 11.06H26.01C25.23 11.06 25.1 11.53 25.1 12.44V13.67H23.87C22.96 13.67 22.48 13.8 22.48 14.59V15.43C22.48 16.21 22.95 16.34 23.87 16.34H25.1V17.57C25.1 18.48 25.23 18.96 26.01 18.96H26.79C27.57 18.96 27.7 18.49 27.7 17.57V16.34H29.45C29.79 16.34 29.97 16.52 30 16.86V20.83C30 21.8 29.71 22.53 29.03 23.18L23.2 29.01C22.52 29.69 21.76 30 20.82 30H9.15997C8.21997 30 7.45997 29.69 6.77997 29.01L0.969975 23.18C0.289975 22.5 -0.0300253 21.79 -2.53402e-05 20.83V9.31C-2.53402e-05 8.34 0.319975 7.5 1.01997 6.79L6.94997 0.78C7.54997 0.18 8.30997 0 9.16997 0H20.83C21.69 0 22.45 0.18 23.05 0.78L28.98 6.79C29.66 7.5 30 8.33 30 9.3V13.06C30 13.45 29.82 13.66 29.45 13.66H27.7V13.67ZM16.62 16.2C14.95 16.2 14.35 16.96 14.35 18.6C14.35 20.24 14.95 20.9 16.62 20.9C18.29 20.9 18.89 20.25 18.89 18.6C18.89 16.95 18.29 16.2 16.62 16.2ZM14.61 11.5C14.61 9.75 15.19 9.23 16.62 9.23C18.05 9.23 18.63 9.75 18.63 11.5C18.63 13.25 18.05 13.77 16.62 13.77C15.19 13.77 14.61 13.19 14.61 11.5Z" fill="#FEFEFE"/>
</g>
<defs>
<clipPath id="clip0_84_118">
<rect width="30" height="30" fill="white"/>
</clipPath>
</defs>
</svg>
