<svg width="71" height="71" viewBox="0 0 71 71" fill="none" xmlns="http://www.w3.org/2000/svg">
<g filter="url(#filter0_b_84_429)">
<rect width="71" height="71" rx="3" fill="#779EB4" fill-opacity="0.66"/>
</g>
<path d="M54.5 36C55.0523 36 55.5 35.5523 55.5 35C55.5 34.4477 55.0523 34 54.5 34L54.5 36ZM16.2929 34.2929C15.9024 34.6834 15.9024 35.3166 16.2929 35.7071L22.6569 42.0711C23.0474 42.4616 23.6805 42.4616 24.0711 42.0711C24.4616 41.6805 24.4616 41.0474 24.0711 40.6569L18.4142 35L24.0711 29.3431C24.4616 28.9526 24.4616 28.3195 24.0711 27.9289C23.6805 27.5384 23.0474 27.5384 22.6569 27.9289L16.2929 34.2929ZM54.5 34L17 34L17 36L54.5 36L54.5 34Z" fill="white"/>
<defs>
<filter id="filter0_b_84_429" x="-4" y="-4" width="79" height="79" filterUnits="userSpaceOnUse" color-interpolation-filters="sRGB">
<feFlood flood-opacity="0" result="BackgroundImageFix"/>
<feGaussianBlur in="BackgroundImageFix" stdDeviation="2"/>
<feComposite in2="SourceAlpha" operator="in" result="effect1_backgroundBlur_84_429"/>
<feBlend mode="normal" in="SourceGraphic" in2="effect1_backgroundBlur_84_429" result="shape"/>
</filter>
</defs>
</svg>
