<svg width="439" height="39" viewBox="0 0 439 39" fill="none" xmlns="http://www.w3.org/2000/svg">
<path d="M270 8L273.464 6V2L270 0L266.536 2V6L270 8Z" fill="#FF0000"/>
<path d="M336 8L339.464 6V2L336 0L332.536 2V6L336 8Z" fill="#FF0000"/>
<path d="M402 8L405.464 6V2L402 0L398.536 2V6L402 8Z" fill="#FF0000"/>
<path d="M303 8L306.464 6V2L303 0L299.536 2V6L303 8Z" fill="#FF0000"/>
<path d="M369 8L372.464 6V2L369 0L365.536 2V6L369 8Z" fill="#FF0000"/>
<path d="M435 8L438.464 6V2L435 0L431.536 2V6L435 8Z" fill="#FF0000"/>
<path d="M270 39L273.464 37V33L270 31L266.536 33V37L270 39Z" fill="#FF0000"/>
<path d="M336 39L339.464 37V33L336 31L332.536 33V37L336 39Z" fill="#FF0000"/>
<path d="M402 39L405.464 37V33L402 31L398.536 33V37L402 39Z" fill="#FF0000"/>
<path d="M303 39L306.464 37V33L303 31L299.536 33V37L303 39Z" fill="#FF0000"/>
<path d="M369 39L372.464 37V33L369 31L365.536 33V37L369 39Z" fill="#FF0000"/>
<path d="M435 39L438.464 37V33L435 31L431.536 33V37L435 39Z" fill="#FF0000"/>
<path d="M105 8L108.464 6V2L105 0L101.536 2V6L105 8Z" fill="#FF0000"/>
<path d="M171 8L174.464 6V2L171 0L167.536 2V6L171 8Z" fill="#FF0000"/>
<path d="M237 8L240.464 6V2L237 0L233.536 2V6L237 8Z" fill="#FF0000"/>
<path d="M138 8L141.464 6V2L138 0L134.536 2V6L138 8Z" fill="#FF0000"/>
<path d="M204 8L207.464 6V2L204 0L200.536 2V6L204 8Z" fill="#FF0000"/>
<path d="M270 8L273.464 6V2L270 0L266.536 2V6L270 8Z" fill="#FF0000"/>
<path d="M105 39L108.464 37V33L105 31L101.536 33V37L105 39Z" fill="#FF0000"/>
<path d="M171 39L174.464 37V33L171 31L167.536 33V37L171 39Z" fill="#FF0000"/>
<path d="M237 39L240.464 37V33L237 31L233.536 33V37L237 39Z" fill="#FF0000"/>
<path d="M138 39L141.464 37V33L138 31L134.536 33V37L138 39Z" fill="#FF0000"/>
<path d="M204 39L207.464 37V33L204 31L200.536 33V37L204 39Z" fill="#FF0000"/>
<path d="M270 39L273.464 37V33L270 31L266.536 33V37L270 39Z" fill="#FF0000"/>
<path d="M105 8L108.464 6V2L105 0L101.536 2V6L105 8Z" fill="#FF0000"/>
<path d="M171 8L174.464 6V2L171 0L167.536 2V6L171 8Z" fill="#FF0000"/>
<path d="M237 8L240.464 6V2L237 0L233.536 2V6L237 8Z" fill="#FF0000"/>
<path d="M138 8L141.464 6V2L138 0L134.536 2V6L138 8Z" fill="#FF0000"/>
<path d="M204 8L207.464 6V2L204 0L200.536 2V6L204 8Z" fill="#FF0000"/>
<path d="M270 8L273.464 6V2L270 0L266.536 2V6L270 8Z" fill="#FF0000"/>
<path d="M105 39L108.464 37V33L105 31L101.536 33V37L105 39Z" fill="#FF0000"/>
<path d="M171 39L174.464 37V33L171 31L167.536 33V37L171 39Z" fill="#FF0000"/>
<path d="M237 39L240.464 37V33L237 31L233.536 33V37L237 39Z" fill="#FF0000"/>
<path d="M138 39L141.464 37V33L138 31L134.536 33V37L138 39Z" fill="#FF0000"/>
<path d="M204 39L207.464 37V33L204 31L200.536 33V37L204 39Z" fill="#FF0000"/>
<path d="M270 39L273.464 37V33L270 31L266.536 33V37L270 39Z" fill="#FF0000"/>
<path d="M6 8L9.4641 6V2L6 0L2.5359 2V6L6 8Z" fill="#FF0000"/>
<path d="M72 8L75.4641 6V2L72 0L68.5359 2V6L72 8Z" fill="#FF0000"/>
<path d="M39 8L42.4641 6V2L39 0L35.5359 2V6L39 8Z" fill="#FF0000"/>
<path d="M105 8L108.464 6V2L105 0L101.536 2V6L105 8Z" fill="#FF0000"/>
<path d="M6 39L9.4641 37V33L6 31L2.5359 33V37L6 39Z" fill="#FF0000"/>
<path d="M72 39L75.4641 37V33L72 31L68.5359 33V37L72 39Z" fill="#FF0000"/>
<path d="M39 39L42.4641 37V33L39 31L35.5359 33V37L39 39Z" fill="#FF0000"/>
<path d="M105 39L108.464 37V33L105 31L101.536 33V37L105 39Z" fill="#FF0000"/>
</svg>
