<svg width="41" height="33" viewBox="0 0 41 33" fill="none" xmlns="http://www.w3.org/2000/svg">
<path d="M40.3536 16.675C40.5489 16.4797 40.5489 16.1631 40.3536 15.9679L37.1716 12.7859C36.9764 12.5906 36.6598 12.5906 36.4645 12.7859C36.2693 12.9811 36.2693 13.2977 36.4645 13.493L39.293 16.3214L36.4645 19.1498C36.2693 19.3451 36.2693 19.6617 36.4645 19.8569C36.6598 20.0522 36.9764 20.0522 37.1716 19.8569L40.3536 16.675ZM7.96436 16.8214L40.0001 16.8214L40.0001 15.8214L7.96436 15.8214L7.96436 16.8214Z" fill="black"/>
<path d="M31.6429 12.8488V1H1V19.8036" stroke="black"/>
<path d="M31.6429 19.794V31.6428H1V12.8393" stroke="black"/>
</svg>
