<svg width="71" height="71" viewBox="0 0 71 71" fill="none" xmlns="http://www.w3.org/2000/svg">
<g filter="url(#filter0_b_84_426)">
<rect width="71" height="71" rx="3" fill="#779EB4" fill-opacity="0.66"/>
</g>
<path d="M35 54.5C35 55.0523 35.4477 55.5 36 55.5C36.5523 55.5 37 55.0523 37 54.5H35ZM36.7071 16.2929C36.3166 15.9024 35.6834 15.9024 35.2929 16.2929L28.9289 22.6569C28.5384 23.0474 28.5384 23.6805 28.9289 24.0711C29.3195 24.4616 29.9526 24.4616 30.3431 24.0711L36 18.4142L41.6569 24.0711C42.0474 24.4616 42.6805 24.4616 43.0711 24.0711C43.4616 23.6805 43.4616 23.0474 43.0711 22.6569L36.7071 16.2929ZM37 54.5V17H35V54.5H37Z" fill="white"/>
<defs>
<filter id="filter0_b_84_426" x="-4" y="-4" width="79" height="79" filterUnits="userSpaceOnUse" color-interpolation-filters="sRGB">
<feFlood flood-opacity="0" result="BackgroundImageFix"/>
<feGaussianBlur in="BackgroundImageFix" stdDeviation="2"/>
<feComposite in2="SourceAlpha" operator="in" result="effect1_backgroundBlur_84_426"/>
<feBlend mode="normal" in="SourceGraphic" in2="effect1_backgroundBlur_84_426" result="shape"/>
</filter>
</defs>
</svg>
