<svg width="338" height="39" viewBox="0 0 338 39" fill="none" xmlns="http://www.w3.org/2000/svg">
<path d="M169 8L172.464 6V2L169 0L165.536 2V6L169 8Z" fill="#FF0000"/>
<path d="M235 8L238.464 6V2L235 0L231.536 2V6L235 8Z" fill="#FF0000"/>
<path d="M301 8L304.464 6V2L301 0L297.536 2V6L301 8Z" fill="#FF0000"/>
<path d="M202 8L205.464 6V2L202 0L198.536 2V6L202 8Z" fill="#FF0000"/>
<path d="M268 8L271.464 6V2L268 0L264.536 2V6L268 8Z" fill="#FF0000"/>
<path d="M334 8L337.464 6V2L334 0L330.536 2V6L334 8Z" fill="#FF0000"/>
<path d="M169 39L172.464 37V33L169 31L165.536 33V37L169 39Z" fill="#FF0000"/>
<path d="M235 39L238.464 37V33L235 31L231.536 33V37L235 39Z" fill="#FF0000"/>
<path d="M301 39L304.464 37V33L301 31L297.536 33V37L301 39Z" fill="#FF0000"/>
<path d="M202 39L205.464 37V33L202 31L198.536 33V37L202 39Z" fill="#FF0000"/>
<path d="M268 39L271.464 37V33L268 31L264.536 33V37L268 39Z" fill="#FF0000"/>
<path d="M334 39L337.464 37V33L334 31L330.536 33V37L334 39Z" fill="#FF0000"/>
<path d="M4 8L7.4641 6V2L4 0L0.535898 2V6L4 8Z" fill="#FF0000"/>
<path d="M70 8L73.4641 6V2L70 0L66.5359 2V6L70 8Z" fill="#FF0000"/>
<path d="M136 8L139.464 6V2L136 0L132.536 2V6L136 8Z" fill="#FF0000"/>
<path d="M37 8L40.4641 6V2L37 0L33.5359 2V6L37 8Z" fill="#FF0000"/>
<path d="M103 8L106.464 6V2L103 0L99.5359 2V6L103 8Z" fill="#FF0000"/>
<path d="M169 8L172.464 6V2L169 0L165.536 2V6L169 8Z" fill="#FF0000"/>
<path d="M4 39L7.4641 37V33L4 31L0.535898 33V37L4 39Z" fill="#FF0000"/>
<path d="M70 39L73.4641 37V33L70 31L66.5359 33V37L70 39Z" fill="#FF0000"/>
<path d="M136 39L139.464 37V33L136 31L132.536 33V37L136 39Z" fill="#FF0000"/>
<path d="M37 39L40.4641 37V33L37 31L33.5359 33V37L37 39Z" fill="#FF0000"/>
<path d="M103 39L106.464 37V33L103 31L99.5359 33V37L103 39Z" fill="#FF0000"/>
<path d="M169 39L172.464 37V33L169 31L165.536 33V37L169 39Z" fill="#FF0000"/>
</svg>
