<svg width="36" height="36" viewBox="0 0 36 36" fill="none" xmlns="http://www.w3.org/2000/svg">
<circle cx="18" cy="18" r="18" fill="#FF0000"/>
<path fill-rule="evenodd" clip-rule="evenodd" d="M9.26249 24.5568C8.87023 24.4408 8.51232 24.2343 8.21896 23.9549C7.9256 23.6754 7.7054 23.3312 7.57695 22.9512C6.84292 20.9874 6.62543 12.7869 8.03911 11.1681C8.50961 10.6414 9.17389 10.3172 9.88777 10.2658C13.6802 9.86768 25.3975 9.92076 26.7432 10.3985C27.1217 10.5183 27.4675 10.7203 27.7547 10.9891C28.0419 11.258 28.263 11.5868 28.4015 11.951C29.2035 13.9812 29.2307 21.3589 28.2928 23.3095C28.044 23.8173 27.6275 24.2285 27.1102 24.4772C25.6965 25.1672 11.1383 25.1539 9.26249 24.5568ZM15.2842 20.7087L22.0808 17.2587L15.2842 13.7821V20.7087Z" fill="white"/>
</svg>
