<svg width="35" height="43" viewBox="0 0 35 43" fill="none" xmlns="http://www.w3.org/2000/svg">
<path d="M0 6.5C0 3.18629 2.68629 0.5 6 0.5H29C32.3137 0.5 35 3.18629 35 6.5V36.5C35 39.8137 32.3137 42.5 29 42.5H6C2.68629 42.5 0 39.8137 0 36.5V6.5Z" fill="#779EB4"/>
<g clip-path="url(#clip0_84_1074)">
<path d="M28.767 15.0606L22.4047 8.73143C22.3782 8.70506 22.349 8.68133 22.3193 8.65918V15.1445H28.8391C28.8169 15.1149 28.793 15.0864 28.7665 15.0601L28.767 15.0606Z" fill="white"/>
<path d="M21.5244 16.7271C21.085 16.7271 20.7293 16.3732 20.7293 15.9361V8.5H7.79516C7.3557 8.5 7 8.85385 7 9.29102V21.1014H24.9441C25.3836 21.1014 25.7393 21.4558 25.7393 21.8924V31.5439C25.7393 31.981 25.3836 32.3349 24.9441 32.3349H7V34.709C7 35.1462 7.3557 35.5 7.79516 35.5H28.2048C28.6443 35.5 29 35.1462 29 34.709V16.7271H21.5244Z" fill="white"/>
<path d="M24.149 22.6835H7V30.7529H24.149V22.6835ZM13.2505 25.7727C13.2505 27.013 12.449 27.4855 11.4248 27.4855H10.6901V29.0802C10.6901 29.3164 10.4006 29.4345 10.1112 29.4345C9.82176 29.4345 9.53232 29.3164 9.53232 29.0802V24.3847C9.53232 24.2001 9.70302 24.0377 9.96277 24.0377H11.499C12.4787 24.0377 13.2505 24.4954 13.2505 25.7357V25.7727ZM17.5847 27.6922C17.5847 28.962 16.7831 29.4345 15.759 29.4345H14.4454C14.1411 29.4345 13.9407 29.2721 13.9407 29.0875V24.3847C13.9407 24.2001 14.1411 24.0377 14.4454 24.0377H15.759C16.7831 24.0377 17.5847 24.5102 17.5847 25.78V27.6922ZM21.5849 25.0418H19.6627V26.2894H20.7833C21.006 26.2894 21.1321 26.5036 21.1321 26.7398C21.1321 26.9391 21.0282 27.1754 20.7833 27.1754H19.6627V29.0802C19.6627 29.3164 19.3732 29.4345 19.0838 29.4345C18.7944 29.4345 18.5049 29.3164 18.5049 29.0802V24.3921C18.5049 24.1558 18.7573 24.0377 19.0096 24.0377H21.5849C21.8298 24.0377 21.9337 24.2961 21.9337 24.5323C21.9337 24.8055 21.8075 25.0418 21.5849 25.0418Z" fill="white"/>
<path d="M15.759 25.0417H15.0984V28.4305H15.759C16.1746 28.4305 16.4269 28.1942 16.4269 27.6922V25.78C16.4269 25.278 16.1746 25.0417 15.759 25.0417Z" fill="white"/>
<path d="M11.4252 25.0415H10.6904V26.5993H11.4252C11.8408 26.5993 12.0931 26.363 12.0931 25.861V25.7798C12.0931 25.2778 11.8408 25.0415 11.4252 25.0415Z" fill="white"/>
</g>
<defs>
<clipPath id="clip0_84_1074">
<rect width="22" height="27" fill="white" transform="translate(7 8.5)"/>
</clipPath>
</defs>
</svg>
