<svg width="36" height="36" viewBox="0 0 36 36" fill="none" xmlns="http://www.w3.org/2000/svg">
<circle cx="18" cy="18" r="18" fill="#FF0000"/>
<path d="M18.9825 26C11.466 26 7.17864 20.7447 7 12H10.7651C10.8888 18.4184 13.6646 21.1371 15.8632 21.6977V12H19.4085V17.5355C21.5796 17.2973 23.8607 14.7748 24.6302 12H28.1755C27.8855 13.4391 27.3075 14.8017 26.4776 16.0025C25.6477 17.2033 24.5837 18.2166 23.3523 18.979C24.7269 19.6756 25.941 20.6615 26.9145 21.8717C27.888 23.082 28.5988 24.489 29 26H25.0974C24.7373 24.6876 24.0054 23.5128 22.9934 22.6228C21.9814 21.7328 20.7343 21.1673 19.4085 20.997V26H18.9825Z" fill="white"/>
</svg>
