<svg width="303" height="75" viewBox="0 0 303 75" fill="none" xmlns="http://www.w3.org/2000/svg">
<path d="M18.9994 62.6269C15.7813 62.6269 12.9551 62.0081 10.5209 60.7703C8.08662 59.4913 6.20937 57.7172 4.88911 55.448C3.56884 53.1788 2.90871 50.5589 2.90871 47.5883V33.2923C2.90871 30.3217 3.56884 27.7018 4.88911 25.4326C6.20937 23.1634 8.08662 21.4099 10.5209 20.1722C12.9551 18.9344 15.7813 18.3155 18.9994 18.3155C22.1763 18.3155 24.9613 18.9138 27.3542 20.1103C29.7885 21.2655 31.6657 22.9365 32.986 25.1232C34.3475 27.2686 35.0283 29.7647 35.0283 32.6115C35.0283 32.9829 34.7807 33.2098 34.2856 33.2923L27.0448 33.7255H26.921C26.5084 33.7255 26.3021 33.4986 26.3021 33.0448C26.3021 30.8581 25.6214 29.1046 24.2599 27.7843C22.9396 26.4641 21.1861 25.8039 18.9994 25.8039C16.7715 25.8039 14.9768 26.4641 13.6152 27.7843C12.295 29.1046 11.6348 30.8581 11.6348 33.0448V47.9596C11.6348 50.105 12.295 51.8379 13.6152 53.1582C14.9768 54.4784 16.7715 55.1386 18.9994 55.1386C21.1861 55.1386 22.9396 54.4784 24.2599 53.1582C25.6214 51.8379 26.3021 50.105 26.3021 47.9596C26.3021 47.5058 26.5497 47.2789 27.0448 47.2789L34.2856 47.5883C34.4919 47.5883 34.657 47.6502 34.7807 47.774C34.9458 47.8977 35.0283 48.0421 35.0283 48.2072C35.0283 51.054 34.3475 53.5707 32.986 55.7574C31.6657 57.9441 29.7885 59.6357 27.3542 60.8322C24.9613 62.0287 22.1763 62.6269 18.9994 62.6269ZM56.8373 62.8126C53.6192 62.8126 50.7723 62.1525 48.2968 60.8322C45.8626 59.5119 43.9647 57.6759 42.6032 55.3242C41.2417 52.9312 40.5609 50.1876 40.5609 47.0932V33.8493C40.5609 30.7962 41.2417 28.0938 42.6032 25.742C43.9647 23.3903 45.8626 21.575 48.2968 20.2959C50.7723 18.9757 53.6192 18.3155 56.8373 18.3155C60.0967 18.3155 62.9435 18.9757 65.3778 20.2959C67.8533 21.575 69.7718 23.3903 71.1333 25.742C72.4948 28.0938 73.1756 30.7962 73.1756 33.8493V47.0932C73.1756 50.1876 72.4948 52.9312 71.1333 55.3242C69.7718 57.7172 67.8533 59.5738 65.3778 60.8941C62.9435 62.1731 60.0967 62.8126 56.8373 62.8126ZM56.8373 55.3242C59.1065 55.3242 60.9425 54.6022 62.3453 53.1582C63.7481 51.7141 64.4495 49.7956 64.4495 47.4026V33.7874C64.4495 31.3944 63.7481 29.4759 62.3453 28.0319C60.9838 26.5466 59.1478 25.8039 56.8373 25.8039C54.5681 25.8039 52.7321 26.5466 51.3293 28.0319C49.9678 29.4759 49.287 31.3944 49.287 33.7874V47.4026C49.287 49.7956 49.9678 51.7141 51.3293 53.1582C52.7321 54.6022 54.5681 55.3242 56.8373 55.3242ZM104.744 19.5533C104.744 19.347 104.806 19.182 104.93 19.0582C105.095 18.8932 105.28 18.8106 105.487 18.8106H112.727C112.934 18.8106 113.099 18.8932 113.223 19.0582C113.388 19.182 113.47 19.347 113.47 19.5533V61.3892C113.47 61.5955 113.388 61.7811 113.223 61.9462C113.099 62.0699 112.934 62.1318 112.727 62.1318H105.734C105.322 62.1318 105.033 61.9668 104.868 61.6367L88.8389 35.1489C88.7564 35.0251 88.6739 34.9839 88.5913 35.0251C88.5088 35.0251 88.4676 35.1077 88.4676 35.2727L88.5913 61.3892C88.5913 61.5955 88.5088 61.7811 88.3438 61.9462C88.22 62.0699 88.055 62.1318 87.8487 62.1318H80.6079C80.4016 62.1318 80.2159 62.0699 80.0509 61.9462C79.9271 61.7811 79.8652 61.5955 79.8652 61.3892V19.5533C79.8652 19.347 79.9271 19.182 80.0509 19.0582C80.2159 18.8932 80.4016 18.8106 80.6079 18.8106H87.6011C88.0137 18.8106 88.3025 18.9757 88.4676 19.3057L104.435 45.6698C104.517 45.7936 104.6 45.8554 104.682 45.8554C104.765 45.8142 104.806 45.711 104.806 45.546L104.744 19.5533ZM150.676 25.5564C150.676 25.7627 150.593 25.9483 150.428 26.1134C150.304 26.2371 150.139 26.299 149.933 26.299H129.696C129.489 26.299 129.386 26.4022 129.386 26.6085V36.201C129.386 36.4073 129.489 36.5104 129.696 36.5104H143.001C143.208 36.5104 143.373 36.593 143.497 36.758C143.662 36.8818 143.744 37.0468 143.744 37.2531V43.2562C143.744 43.4625 143.662 43.6481 143.497 43.8132C143.373 43.9369 143.208 43.9988 143.001 43.9988H129.696C129.489 43.9988 129.386 44.102 129.386 44.3083V61.3892C129.386 61.5955 129.304 61.7811 129.139 61.9462C129.015 62.0699 128.85 62.1318 128.644 62.1318H121.403C121.196 62.1318 121.011 62.0699 120.846 61.9462C120.722 61.7811 120.66 61.5955 120.66 61.3892V19.5533C120.66 19.347 120.722 19.182 120.846 19.0582C121.011 18.8932 121.196 18.8106 121.403 18.8106H149.933C150.139 18.8106 150.304 18.8932 150.428 19.0582C150.593 19.182 150.676 19.347 150.676 19.5533V25.5564ZM185.368 25.5564C185.368 25.7627 185.285 25.9483 185.12 26.1134C184.996 26.2371 184.831 26.299 184.625 26.299H164.326C164.12 26.299 164.017 26.4022 164.017 26.6085V36.201C164.017 36.4073 164.12 36.5104 164.326 36.5104H177.632C177.838 36.5104 178.003 36.593 178.127 36.758C178.292 36.8818 178.375 37.0468 178.375 37.2531V43.2562C178.375 43.4625 178.292 43.6481 178.127 43.8132C178.003 43.9369 177.838 43.9988 177.632 43.9988H164.326C164.12 43.9988 164.017 44.102 164.017 44.3083V54.334C164.017 54.5403 164.12 54.6435 164.326 54.6435H184.625C184.831 54.6435 184.996 54.726 185.12 54.891C185.285 55.0148 185.368 55.1798 185.368 55.3861V61.3892C185.368 61.5955 185.285 61.7811 185.12 61.9462C184.996 62.0699 184.831 62.1318 184.625 62.1318H156.033C155.827 62.1318 155.641 62.0699 155.476 61.9462C155.352 61.7811 155.29 61.5955 155.29 61.3892V19.5533C155.29 19.347 155.352 19.182 155.476 19.0582C155.641 18.8932 155.827 18.8106 156.033 18.8106H184.625C184.831 18.8106 184.996 18.8932 185.12 19.0582C185.285 19.182 185.368 19.347 185.368 19.5533V25.5564Z" fill="black"/>
<path d="M216.282 62C215.87 62 215.581 61.8143 215.416 61.443L207.68 44.3002C207.597 44.1352 207.473 44.0527 207.308 44.0527H201.553C201.347 44.0527 201.243 44.1558 201.243 44.3621V61.2574C201.243 61.4636 201.161 61.6493 200.996 61.8143C200.872 61.9381 200.707 62 200.501 62H193.26C193.054 62 192.868 61.9381 192.703 61.8143C192.579 61.6493 192.517 61.4636 192.517 61.2574V19.4215C192.517 19.2152 192.579 19.0501 192.703 18.9264C192.868 18.7613 193.054 18.6788 193.26 18.6788H210.96C213.6 18.6788 215.911 19.2152 217.891 20.2879C219.913 21.3606 221.46 22.8872 222.533 24.8676C223.647 26.8479 224.204 29.1378 224.204 31.7371C224.204 34.5426 223.502 36.9562 222.1 38.9779C220.697 40.9583 218.737 42.3611 216.22 43.1862C216.014 43.2687 215.952 43.4131 216.035 43.6194L224.451 61.1336C224.534 61.2986 224.575 61.4224 224.575 61.5049C224.575 61.835 224.348 62 223.894 62H216.282ZM201.553 26.1672C201.347 26.1672 201.243 26.2703 201.243 26.4766V37.0594C201.243 37.2657 201.347 37.3688 201.553 37.3688H209.66C211.393 37.3688 212.796 36.8531 213.868 35.8216C214.982 34.7902 215.539 33.4493 215.539 31.7989C215.539 30.1486 214.982 28.8077 213.868 27.7763C212.796 26.7035 211.393 26.1672 209.66 26.1672H201.553ZM245.942 62.6808C242.724 62.6808 239.877 62.0206 237.402 60.7004C234.967 59.3801 233.07 57.5441 231.708 55.1924C230.346 52.7994 229.666 50.0557 229.666 46.9614V33.7175C229.666 30.6643 230.346 27.9619 231.708 25.6102C233.07 23.2585 234.967 21.4431 237.402 20.1641C239.877 18.8438 242.724 18.1837 245.942 18.1837C249.202 18.1837 252.048 18.8438 254.483 20.1641C256.958 21.4431 258.877 23.2585 260.238 25.6102C261.6 27.9619 262.28 30.6643 262.28 33.7175V46.9614C262.28 50.0557 261.6 52.7994 260.238 55.1924C258.877 57.5854 256.958 59.442 254.483 60.7623C252.048 62.0413 249.202 62.6808 245.942 62.6808ZM245.942 55.1924C248.211 55.1924 250.047 54.4704 251.45 53.0263C252.853 51.5823 253.554 49.6638 253.554 47.2708V33.6556C253.554 31.2626 252.853 29.3441 251.45 27.9C250.089 26.4147 248.253 25.6721 245.942 25.6721C243.673 25.6721 241.837 26.4147 240.434 27.9C239.073 29.3441 238.392 31.2626 238.392 33.6556V47.2708C238.392 49.6638 239.073 51.5823 240.434 53.0263C241.837 54.4704 243.673 55.1924 245.942 55.1924ZM283.823 62.4951C280.522 62.4951 277.634 61.9794 275.159 60.9479C272.683 59.8752 270.765 58.3693 269.403 56.4301C268.083 54.4497 267.423 52.1599 267.423 49.5606V48.1991C267.423 47.9928 267.485 47.8278 267.609 47.704C267.774 47.539 267.959 47.4565 268.165 47.4565H275.221C275.427 47.4565 275.592 47.539 275.716 47.704C275.881 47.8278 275.963 47.9928 275.963 48.1991V49.1274C275.963 50.7777 276.727 52.1805 278.253 53.3358C279.78 54.4497 281.843 55.0067 284.442 55.0067C286.629 55.0067 288.258 54.5529 289.331 53.6452C290.404 52.6963 290.94 51.541 290.94 50.1795C290.94 49.1893 290.61 48.3641 289.95 47.704C289.29 47.0026 288.382 46.4044 287.227 45.9093C286.113 45.3729 284.318 44.6509 281.843 43.7432C279.078 42.7943 276.727 41.8247 274.787 40.8345C272.89 39.8443 271.28 38.5034 269.96 36.8118C268.681 35.079 268.042 32.9542 268.042 30.4374C268.042 27.9619 268.681 25.7959 269.96 23.9392C271.239 22.0826 273.013 20.6592 275.283 19.669C277.552 18.6788 280.172 18.1837 283.142 18.1837C286.278 18.1837 289.063 18.7407 291.497 19.8547C293.973 20.9686 295.891 22.5365 297.253 24.5581C298.655 26.5385 299.357 28.849 299.357 31.4895V32.4178C299.357 32.6241 299.274 32.8098 299.109 32.9748C298.985 33.0986 298.82 33.1605 298.614 33.1605H291.497C291.291 33.1605 291.105 33.0986 290.94 32.9748C290.816 32.8098 290.754 32.6241 290.754 32.4178V31.9227C290.754 30.1899 290.032 28.7252 288.588 27.5287C287.186 26.291 285.246 25.6721 282.771 25.6721C280.832 25.6721 279.305 26.0847 278.191 26.9098C277.119 27.735 276.582 28.8696 276.582 30.3136C276.582 31.3451 276.892 32.2115 277.51 32.9129C278.171 33.6143 279.12 34.2538 280.357 34.8314C281.636 35.3678 283.596 36.1104 286.237 37.0594C289.166 38.1321 291.456 39.081 293.106 39.9062C294.798 40.7314 296.304 41.9691 297.624 43.6194C298.985 45.2285 299.666 47.3327 299.666 49.932C299.666 53.8102 298.243 56.884 295.396 59.1532C292.549 61.3811 288.691 62.4951 283.823 62.4951Z" fill="black"/>
</svg>
