<svg width="41" height="33" viewBox="0 0 41 33" fill="none" xmlns="http://www.w3.org/2000/svg">
<path d="M0.646378 16.675C0.451115 16.4797 0.451115 16.1631 0.646378 15.9679L3.82836 12.7859C4.02362 12.5906 4.3402 12.5906 4.53547 12.7859C4.73073 12.9811 4.73073 13.2977 4.53547 13.493L1.70704 16.3214L4.53546 19.1498C4.73073 19.3451 4.73073 19.6617 4.53546 19.8569C4.3402 20.0522 4.02362 20.0522 3.82836 19.8569L0.646378 16.675ZM33.0356 16.8214L0.999931 16.8214L0.999931 15.8214L33.0356 15.8214L33.0356 16.8214Z" fill="black"/>
<path d="M9.35714 12.8488V1H40V19.8036" stroke="black"/>
<path d="M9.35714 19.794V31.6428H40V12.8393" stroke="black"/>
</svg>
