<?xml version="1.0" encoding="utf-8"?><svg viewBox="0 0 22 23" xmlns="http://www.w3.org/2000/svg" xmlns:xlink="http://www.w3.org/1999/xlink"><style>:root>svg{display:none}:root>svg:target{display:block}</style><svg fill="none" viewBox="0 0 13 23" id="ask" xmlns="http://www.w3.org/2000/svg"><path d="M6.251 15.737c-.497 0-.917-.172-1.259-.515-.341-.343-.492-.746-.451-1.21.062-.848.27-1.584.622-2.21.352-.625.912-1.27 1.68-1.936.85-.727 1.497-1.357 1.943-1.892a2.773 2.773 0 0 0 .669-1.83c0-.828-.285-1.514-.855-2.058-.57-.545-1.363-.818-2.38-.818-.663 0-1.229.137-1.696.41-.466.272-.845.61-1.134 1.013-.29.403-.648.676-1.072.817a1.718 1.718 0 0 1-1.23-.03C.612 5.276.285 4.943.11 4.479c-.175-.464-.14-.898.109-1.301.6-.908 1.41-1.665 2.425-2.27C3.66.303 4.852 0 6.22 0c2.177 0 3.852.59 5.023 1.77C12.415 2.95 13.001 4.367 13 6.022c0 1.01-.223 1.872-.668 2.588-.445.717-1.145 1.529-2.1 2.436-.705.646-1.203 1.17-1.493 1.574a3.52 3.52 0 0 0-.59 1.392c-.084.504-.301.918-.654 1.24a1.782 1.782 0 0 1-1.244.485ZM6.221 23a2.43 2.43 0 0 1-1.759-.712c-.487-.474-.73-1.044-.73-1.71 0-.665.244-1.235.731-1.71a2.424 2.424 0 0 1 1.757-.71c.684 0 1.27.237 1.758.712.488.474.73 1.044.73 1.709 0 .666-.244 1.236-.731 1.71A2.425 2.425 0 0 1 6.22 23Z" fill="#F8EDFF"/></svg><svg viewBox="0 0 22 23" id="call" xmlns="http://www.w3.org/2000/svg"><path d="M19.992 23c-2.536 0-5.007-.613-7.415-1.837a22.599 22.599 0 0 1-6.399-4.856c-1.858-2.012-3.352-4.323-4.482-6.932C.566 6.765.001 4.088 0 1.342 0 .958.118.639.354.383.59.128.884 0 1.238 0h4.777c.276 0 .521.096.738.287.216.192.344.437.383.735l.767 4.472c.039.299.034.57-.016.816-.05.245-.162.463-.338.654l-2.831 3.13a21.088 21.088 0 0 0 3.096 4.313 21.924 21.924 0 0 0 4.099 3.482l2.772-3.003c.176-.192.408-.335.693-.43.286-.096.566-.123.84-.081l4.07.894c.274.064.5.208.677.432.177.224.266.485.266.782v5.175c0 .384-.118.703-.354.959-.236.255-.53.383-.885.383Z"/></svg><svg viewBox="0 0 12 13" id="search" xmlns="http://www.w3.org/2000/svg"><path d="m11.067 12.5-4.2-4.2a4.063 4.063 0 0 1-2.533.867c-1.212 0-2.237-.42-3.075-1.259C.42 7.068 0 6.044 0 4.833c0-1.21.42-2.236 1.259-3.074C2.098.92 3.123.5 4.333.5 5.544.5 6.57.92 7.408 1.759s1.258 1.864 1.259 3.074A4.063 4.063 0 0 1 7.8 7.367l4.2 4.2-.933.933ZM4.333 7.833c.834 0 1.542-.291 2.126-.875a2.89 2.89 0 0 0 .874-2.125c0-.833-.291-1.541-.875-2.125a2.89 2.89 0 0 0-2.125-.875c-.833 0-1.541.292-2.125.876a2.89 2.89 0 0 0-.875 2.124c0 .834.292 1.542.876 2.126a2.89 2.89 0 0 0 2.124.874Z"/></svg></svg>